<svg width="24" height="24" viewBox="0 0 24 24" fill="none" xmlns="http://www.w3.org/2000/svg">
<path d="M12 4.50001C10.1103 4.49682 8.28911 5.20706 6.90052 6.4887C5.51192 7.77034 4.6583 9.52892 4.51034 11.4128C4.36239 13.2966 4.93101 15.1669 6.1025 16.6496C7.27399 18.1323 8.962 19.1182 10.829 19.41V14.168H8.92398V12H10.829V10.348C10.829 8.46801 11.947 7.43001 13.661 7.43001C14.481 7.43001 15.34 7.57701 15.34 7.57701V9.42201H14.395C13.463 9.42201 13.172 10 13.172 10.593V12H15.252L14.92 14.168H13.172V19.409C15.0377 19.1157 16.7241 18.1293 17.8942 16.6469C19.0644 15.1644 19.6322 13.2951 19.4842 11.4122C19.3361 9.52943 18.4832 7.77176 17.0958 6.49036C15.7084 5.20897 13.8886 4.49819 12 4.50001Z" fill="#6E51E0"/>
<path d="M12 4.50001C10.1103 4.49682 8.28911 5.20706 6.90052 6.4887C5.51192 7.77034 4.6583 9.52892 4.51034 11.4128C4.36239 13.2966 4.93101 15.1669 6.1025 16.6496C7.27399 18.1323 8.962 19.1182 10.829 19.41V14.168H8.92398V12H10.829V10.348C10.829 8.46801 11.947 7.43001 13.661 7.43001C14.481 7.43001 15.34 7.57701 15.34 7.57701V9.42201H14.395C13.463 9.42201 13.172 10 13.172 10.593V12H15.252L14.92 14.168H13.172V19.409C15.0377 19.1157 16.7241 18.1293 17.8942 16.6469C19.0644 15.1644 19.6322 13.2951 19.4842 11.4122C19.3361 9.52943 18.4832 7.77176 17.0958 6.49036C15.7084 5.20897 13.8886 4.49819 12 4.50001Z" fill="url(#paint0_linear_22001_1152)" fill-opacity="0.24"/>
<defs>
<linearGradient id="paint0_linear_22001_1152" x1="12" y1="4.50001" x2="12" y2="19.409" gradientUnits="userSpaceOnUse">
<stop stop-color="white"/>
<stop offset="1" stop-color="white" stop-opacity="0"/>
</linearGradient>
</defs>
</svg>
