<svg width="24" height="24" viewBox="0 0 24 24" fill="none" xmlns="http://www.w3.org/2000/svg">
<path d="M12 4.5C14.038 4.5 14.292 4.508 15.091 4.545C15.891 4.582 16.434 4.708 16.913 4.894C17.407 5.084 17.825 5.342 18.241 5.758C18.623 6.133 18.918 6.587 19.106 7.088C19.291 7.565 19.417 8.11 19.455 8.908C19.49 9.708 19.5 9.962 19.5 12C19.5 14.038 19.492 14.292 19.455 15.091C19.418 15.891 19.292 16.434 19.106 16.913C18.918 17.413 18.623 17.867 18.241 18.241C17.8663 18.6222 17.4131 18.9173 16.913 19.106C16.435 19.291 15.89 19.417 15.091 19.455C14.292 19.49 14.038 19.5 12 19.5C9.962 19.5 9.708 19.492 8.909 19.455C8.109 19.418 7.566 19.292 7.087 19.106C6.58623 18.918 6.13263 18.6228 5.758 18.241C5.37695 17.8664 5.08211 17.4132 4.894 16.913C4.708 16.435 4.582 15.89 4.545 15.091C4.51 14.293 4.5 14.038 4.5 12C4.5 9.962 4.508 9.708 4.545 8.909C4.582 8.109 4.708 7.566 4.894 7.087C5.081 6.587 5.377 6.133 5.758 5.758C6.13312 5.37658 6.58704 5.08171 7.088 4.894C7.566 4.708 8.109 4.582 8.908 4.545C9.709 4.51 9.963 4.5 12 4.5ZM12 8.25C11.0054 8.25 10.0516 8.64509 9.34835 9.34835C8.64509 10.0516 8.25 11.0054 8.25 12C8.25 12.9946 8.64509 13.9484 9.34835 14.6517C10.0516 15.3549 11.0054 15.75 12 15.75C12.9946 15.75 13.9484 15.3549 14.6517 14.6517C15.3549 13.9484 15.75 12.9946 15.75 12C15.75 11.0054 15.3549 10.0516 14.6517 9.34835C13.9484 8.64509 12.9946 8.25 12 8.25ZM16.875 8.062C16.8791 7.93631 16.8579 7.81108 16.8126 7.69375C16.7674 7.57642 16.699 7.46939 16.6115 7.37903C16.524 7.28866 16.4193 7.21681 16.3035 7.16774C16.1877 7.11867 16.0633 7.09338 15.9375 7.09338C15.8117 7.09338 15.6873 7.11867 15.5715 7.16774C15.4557 7.21681 15.351 7.28866 15.2635 7.37903C15.176 7.46939 15.1076 7.57642 15.0624 7.69375C15.0171 7.81108 14.9959 7.93631 15 8.062C15.0079 8.30534 15.1102 8.53606 15.2852 8.70538C15.4601 8.87471 15.694 8.96938 15.9375 8.96938C16.181 8.96938 16.4149 8.87471 16.5898 8.70538C16.7648 8.53606 16.8671 8.30534 16.875 8.062ZM12 9.75C12.5967 9.75 13.169 9.98705 13.591 10.409C14.0129 10.831 14.25 11.4033 14.25 12C14.25 12.5967 14.0129 13.169 13.591 13.591C13.169 14.0129 12.5967 14.25 12 14.25C11.4033 14.25 10.831 14.0129 10.409 13.591C9.98705 13.169 9.75 12.5967 9.75 12C9.75 11.4033 9.98705 10.831 10.409 10.409C10.831 9.98705 11.4033 9.75 12 9.75Z" fill="#6E51E0"/>
<path d="M12 4.5C14.038 4.5 14.292 4.508 15.091 4.545C15.891 4.582 16.434 4.708 16.913 4.894C17.407 5.084 17.825 5.342 18.241 5.758C18.623 6.133 18.918 6.587 19.106 7.088C19.291 7.565 19.417 8.11 19.455 8.908C19.49 9.708 19.5 9.962 19.5 12C19.5 14.038 19.492 14.292 19.455 15.091C19.418 15.891 19.292 16.434 19.106 16.913C18.918 17.413 18.623 17.867 18.241 18.241C17.8663 18.6222 17.4131 18.9173 16.913 19.106C16.435 19.291 15.89 19.417 15.091 19.455C14.292 19.49 14.038 19.5 12 19.5C9.962 19.5 9.708 19.492 8.909 19.455C8.109 19.418 7.566 19.292 7.087 19.106C6.58623 18.918 6.13263 18.6228 5.758 18.241C5.37695 17.8664 5.08211 17.4132 4.894 16.913C4.708 16.435 4.582 15.89 4.545 15.091C4.51 14.293 4.5 14.038 4.5 12C4.5 9.962 4.508 9.708 4.545 8.909C4.582 8.109 4.708 7.566 4.894 7.087C5.081 6.587 5.377 6.133 5.758 5.758C6.13312 5.37658 6.58704 5.08171 7.088 4.894C7.566 4.708 8.109 4.582 8.908 4.545C9.709 4.51 9.963 4.5 12 4.5ZM12 8.25C11.0054 8.25 10.0516 8.64509 9.34835 9.34835C8.64509 10.0516 8.25 11.0054 8.25 12C8.25 12.9946 8.64509 13.9484 9.34835 14.6517C10.0516 15.3549 11.0054 15.75 12 15.75C12.9946 15.75 13.9484 15.3549 14.6517 14.6517C15.3549 13.9484 15.75 12.9946 15.75 12C15.75 11.0054 15.3549 10.0516 14.6517 9.34835C13.9484 8.64509 12.9946 8.25 12 8.25ZM16.875 8.062C16.8791 7.93631 16.8579 7.81108 16.8126 7.69375C16.7674 7.57642 16.699 7.46939 16.6115 7.37903C16.524 7.28866 16.4193 7.21681 16.3035 7.16774C16.1877 7.11867 16.0633 7.09338 15.9375 7.09338C15.8117 7.09338 15.6873 7.11867 15.5715 7.16774C15.4557 7.21681 15.351 7.28866 15.2635 7.37903C15.176 7.46939 15.1076 7.57642 15.0624 7.69375C15.0171 7.81108 14.9959 7.93631 15 8.062C15.0079 8.30534 15.1102 8.53606 15.2852 8.70538C15.4601 8.87471 15.694 8.96938 15.9375 8.96938C16.181 8.96938 16.4149 8.87471 16.5898 8.70538C16.7648 8.53606 16.8671 8.30534 16.875 8.062ZM12 9.75C12.5967 9.75 13.169 9.98705 13.591 10.409C14.0129 10.831 14.25 11.4033 14.25 12C14.25 12.5967 14.0129 13.169 13.591 13.591C13.169 14.0129 12.5967 14.25 12 14.25C11.4033 14.25 10.831 14.0129 10.409 13.591C9.98705 13.169 9.75 12.5967 9.75 12C9.75 11.4033 9.98705 10.831 10.409 10.409C10.831 9.98705 11.4033 9.75 12 9.75Z" fill="url(#paint0_linear_22001_1166)" fill-opacity="0.24"/>
<defs>
<linearGradient id="paint0_linear_22001_1166" x1="12" y1="4.5" x2="12" y2="19.5" gradientUnits="userSpaceOnUse">
<stop stop-color="white"/>
<stop offset="1" stop-color="white" stop-opacity="0"/>
</linearGradient>
</defs>
</svg>
