<svg width="24" height="25" viewBox="0 0 24 25" fill="none" xmlns="http://www.w3.org/2000/svg">
<g clip-path="url(#clip0_22001_885)">
<g clip-path="url(#clip1_22001_885)">
<path d="M8.66 20.494C15.454 20.494 19.168 14.864 19.168 9.98302C19.168 9.82302 19.165 9.66302 19.158 9.50502C19.8808 8.98184 20.5045 8.33404 21 7.59202C20.3265 7.89106 19.6118 8.08725 18.88 8.17402C19.6509 7.71196 20.2277 6.98557 20.503 6.13002C19.7781 6.56032 18.985 6.86368 18.158 7.02702C17.6019 6.43291 16.8651 6.03907 16.0622 5.90666C15.2593 5.77424 14.4351 5.91067 13.7177 6.29476C13.0002 6.67884 12.4297 7.28908 12.0947 8.03069C11.7597 8.77231 11.6789 9.6038 11.865 10.396C10.3965 10.3223 8.95987 9.94058 7.64848 9.27558C6.33708 8.61058 5.18021 7.67719 4.253 6.53602C3.92495 7.09987 3.75241 7.74068 3.753 8.39302C3.753 9.67502 4.405 10.806 5.396 11.468C4.80939 11.4502 4.23565 11.2917 3.723 11.006V11.053C3.72295 11.906 4.01798 12.7327 4.55805 13.3928C5.09812 14.053 5.84996 14.506 6.686 14.675C6.14208 14.823 5.57153 14.8445 5.018 14.738C5.25371 15.4721 5.71301 16.114 6.33161 16.5741C6.95022 17.0342 7.69719 17.2894 8.468 17.304C7.15999 18.3314 5.54425 18.8886 3.881 18.886C3.587 18.886 3.292 18.869 3 18.834C4.68812 19.9194 6.65307 20.4957 8.66 20.494Z" fill="#1DA1F2"/>
</g>
</g>
<defs>
<clipPath id="clip0_22001_885">
<rect width="24" height="24" fill="white" transform="translate(0 0.859863)"/>
</clipPath>
<clipPath id="clip1_22001_885">
<rect width="24" height="24" fill="white" transform="translate(0 0.859863)"/>
</clipPath>
</defs>
</svg>
