<svg width="16" height="16" viewBox="0 0 16 16" fill="none" xmlns="http://www.w3.org/2000/svg">
<path d="M8 0.5C10.038 0.5 10.292 0.508 11.091 0.545C11.891 0.582 12.434 0.708 12.913 0.894C13.407 1.084 13.825 1.342 14.241 1.758C14.623 2.133 14.918 2.587 15.106 3.088C15.291 3.565 15.417 4.11 15.455 4.908C15.49 5.708 15.5 5.962 15.5 8C15.5 10.038 15.492 10.292 15.455 11.091C15.418 11.891 15.292 12.434 15.106 12.913C14.918 13.413 14.623 13.867 14.241 14.241C13.8663 14.6222 13.4131 14.9173 12.913 15.106C12.435 15.291 11.89 15.417 11.091 15.455C10.292 15.49 10.038 15.5 8 15.5C5.962 15.5 5.708 15.492 4.909 15.455C4.109 15.418 3.566 15.292 3.087 15.106C2.58623 14.918 2.13263 14.6228 1.758 14.241C1.37695 13.8664 1.08211 13.4132 0.894 12.913C0.708 12.435 0.582 11.89 0.545 11.091C0.51 10.293 0.5 10.038 0.5 8C0.5 5.962 0.508 5.708 0.545 4.909C0.582 4.109 0.708 3.566 0.894 3.087C1.081 2.587 1.377 2.133 1.758 1.758C2.13312 1.37658 2.58704 1.08171 3.088 0.894C3.566 0.708 4.109 0.582 4.908 0.545C5.709 0.51 5.963 0.5 8 0.5ZM8 4.25C7.00544 4.25 6.05161 4.64509 5.34835 5.34835C4.64509 6.05161 4.25 7.00544 4.25 8C4.25 8.99456 4.64509 9.94839 5.34835 10.6517C6.05161 11.3549 7.00544 11.75 8 11.75C8.99456 11.75 9.94839 11.3549 10.6517 10.6517C11.3549 9.94839 11.75 8.99456 11.75 8C11.75 7.00544 11.3549 6.05161 10.6517 5.34835C9.94839 4.64509 8.99456 4.25 8 4.25ZM12.875 4.062C12.8791 3.93631 12.8579 3.81108 12.8126 3.69375C12.7674 3.57642 12.699 3.46939 12.6115 3.37903C12.524 3.28866 12.4193 3.21681 12.3035 3.16774C12.1877 3.11867 12.0633 3.09338 11.9375 3.09338C11.8117 3.09338 11.6873 3.11867 11.5715 3.16774C11.4557 3.21681 11.351 3.28866 11.2635 3.37903C11.176 3.46939 11.1076 3.57642 11.0624 3.69375C11.0171 3.81108 10.9959 3.93631 11 4.062C11.0079 4.30534 11.1102 4.53606 11.2852 4.70538C11.4601 4.87471 11.694 4.96938 11.9375 4.96938C12.181 4.96938 12.4149 4.87471 12.5898 4.70538C12.7648 4.53606 12.8671 4.30534 12.875 4.062ZM8 5.75C8.59674 5.75 9.16903 5.98705 9.59099 6.40901C10.0129 6.83097 10.25 7.40326 10.25 8C10.25 8.59674 10.0129 9.16903 9.59099 9.59099C9.16903 10.0129 8.59674 10.25 8 10.25C7.40326 10.25 6.83097 10.0129 6.40901 9.59099C5.98705 9.16903 5.75 8.59674 5.75 8C5.75 7.40326 5.98705 6.83097 6.40901 6.40901C6.83097 5.98705 7.40326 5.75 8 5.75Z" fill="url(#paint0_linear_22001_1168)" fill-opacity="0.24"/>
<defs>
<linearGradient id="paint0_linear_22001_1168" x1="8" y1="0.5" x2="8" y2="15.5" gradientUnits="userSpaceOnUse">
<stop stop-color="white"/>
<stop offset="1" stop-color="white" stop-opacity="0"/>
</linearGradient>
</defs>
</svg>
