<svg width="27" height="21" viewBox="0 0 27 21" fill="none" xmlns="http://www.w3.org/2000/svg">
<path d="M13.5321 0.890015C11.7095 0.890015 9.96158 1.61403 8.67283 2.90278C7.38408 4.19153 6.66007 5.93945 6.66007 7.76201V7.77601C5.09176 7.88275 3.62618 8.59432 2.57235 9.76069C1.51852 10.9271 0.958791 12.4571 1.01119 14.0281C1.06358 15.5992 1.724 17.0885 2.8532 18.1821C3.9824 19.2757 5.49213 19.888 7.06407 19.89H20.0001C21.572 19.888 23.0817 19.2757 24.2109 18.1821C25.3401 17.0885 26.0006 15.5992 26.053 14.0281C26.1053 12.4571 25.5456 10.9271 24.4918 9.76069C23.438 8.59432 21.9724 7.88275 20.4041 7.77601V7.76201C20.4041 5.93945 19.6801 4.19153 18.3913 2.90278C17.1026 1.61403 15.3546 0.890015 13.5321 0.890015Z" fill="#6E51E0"/>
<path d="M13.5321 0.890015C11.7095 0.890015 9.96158 1.61403 8.67283 2.90278C7.38408 4.19153 6.66007 5.93945 6.66007 7.76201V7.77601C5.09176 7.88275 3.62618 8.59432 2.57235 9.76069C1.51852 10.9271 0.958791 12.4571 1.01119 14.0281C1.06358 15.5992 1.724 17.0885 2.8532 18.1821C3.9824 19.2757 5.49213 19.888 7.06407 19.89H20.0001C21.572 19.888 23.0817 19.2757 24.2109 18.1821C25.3401 17.0885 26.0006 15.5992 26.053 14.0281C26.1053 12.4571 25.5456 10.9271 24.4918 9.76069C23.438 8.59432 21.9724 7.88275 20.4041 7.77601V7.76201C20.4041 5.93945 19.6801 4.19153 18.3913 2.90278C17.1026 1.61403 15.3546 0.890015 13.5321 0.890015Z" fill="url(#paint0_linear_24075_3)" fill-opacity="0.4"/>
<path d="M13.5321 0.890015C11.7095 0.890015 9.96158 1.61403 8.67283 2.90278C7.38408 4.19153 6.66007 5.93945 6.66007 7.76201V7.77601C5.09176 7.88275 3.62618 8.59432 2.57235 9.76069C1.51852 10.9271 0.958791 12.4571 1.01119 14.0281C1.06358 15.5992 1.724 17.0885 2.8532 18.1821C3.9824 19.2757 5.49213 19.888 7.06407 19.89H20.0001C21.572 19.888 23.0817 19.2757 24.2109 18.1821C25.3401 17.0885 26.0006 15.5992 26.053 14.0281C26.1053 12.4571 25.5456 10.9271 24.4918 9.76069C23.438 8.59432 21.9724 7.88275 20.4041 7.77601V7.76201C20.4041 5.93945 19.6801 4.19153 18.3913 2.90278C17.1026 1.61403 15.3546 0.890015 13.5321 0.890015Z" stroke="url(#paint1_linear_24075_3)" stroke-opacity="0.32" stroke-width="1.5" stroke-linecap="round" stroke-linejoin="round"/>
<defs>
<linearGradient id="paint0_linear_24075_3" x1="13.5321" y1="0.890015" x2="13.5321" y2="15.388" gradientUnits="userSpaceOnUse">
<stop stop-color="white"/>
<stop offset="1" stop-color="white" stop-opacity="0"/>
</linearGradient>
<linearGradient id="paint1_linear_24075_3" x1="13.5321" y1="-9.98399" x2="13.5321" y2="20.826" gradientUnits="userSpaceOnUse">
<stop stop-color="white"/>
<stop offset="1" stop-color="white" stop-opacity="0"/>
</linearGradient>
</defs>
</svg>
